<mxfile host="app.diagrams.net" modified="2023-05-23T06:47:00.575Z" agent="Mozilla/5.0 (Windows NT 10.0; Win64; x64) AppleWebKit/537.36 (KHTML, like Gecko) Chrome/113.0.0.0 Safari/537.36" etag="S1t9gdf2CSvfBEmwy7J_" version="21.3.2" type="device">
  <diagram name="Trang-1" id="saQnZeD34IyyUcUkiqRI">
    <mxGraphModel dx="770" dy="483" grid="1" gridSize="10" guides="1" tooltips="1" connect="1" arrows="1" fold="1" page="1" pageScale="1" pageWidth="827" pageHeight="1169" math="0" shadow="0">
      <root>
        <mxCell id="0" />
        <mxCell id="1" parent="0" />
        <mxCell id="_6GzWwc_408e7fxmxOcH-1" value="Check Disconnect Server" style="ellipse;whiteSpace=wrap;html=1;" parent="1" vertex="1">
          <mxGeometry x="60" y="10" width="120" height="50" as="geometry" />
        </mxCell>
        <mxCell id="_6GzWwc_408e7fxmxOcH-2" value="Check Disconnect" style="rhombus;whiteSpace=wrap;html=1;" parent="1" vertex="1">
          <mxGeometry x="30" y="100" width="180" height="50" as="geometry" />
        </mxCell>
        <mxCell id="_6GzWwc_408e7fxmxOcH-4" value="Kết thúc" style="ellipse;whiteSpace=wrap;html=1;" parent="1" vertex="1">
          <mxGeometry x="60" y="200" width="120" height="50" as="geometry" />
        </mxCell>
        <mxCell id="_6GzWwc_408e7fxmxOcH-6" value="" style="edgeStyle=none;orthogonalLoop=1;jettySize=auto;html=1;rounded=0;exitX=0.5;exitY=1;exitDx=0;exitDy=0;entryX=0.5;entryY=0;entryDx=0;entryDy=0;" parent="1" source="_6GzWwc_408e7fxmxOcH-1" target="_6GzWwc_408e7fxmxOcH-2" edge="1">
          <mxGeometry width="100" relative="1" as="geometry">
            <mxPoint x="90" y="80" as="sourcePoint" />
            <mxPoint x="190" y="80" as="targetPoint" />
            <Array as="points" />
          </mxGeometry>
        </mxCell>
        <mxCell id="_6GzWwc_408e7fxmxOcH-7" value="" style="edgeStyle=none;orthogonalLoop=1;jettySize=auto;html=1;rounded=0;exitX=0.5;exitY=1;exitDx=0;exitDy=0;entryX=0.5;entryY=0;entryDx=0;entryDy=0;" parent="1" source="_6GzWwc_408e7fxmxOcH-2" target="_6GzWwc_408e7fxmxOcH-4" edge="1">
          <mxGeometry width="100" relative="1" as="geometry">
            <mxPoint x="90" y="180" as="sourcePoint" />
            <mxPoint x="190" y="180" as="targetPoint" />
            <Array as="points" />
          </mxGeometry>
        </mxCell>
        <mxCell id="_6GzWwc_408e7fxmxOcH-9" value="Connect SIM" style="ellipse;whiteSpace=wrap;html=1;" parent="1" vertex="1">
          <mxGeometry x="250" y="97.5" width="120" height="55" as="geometry" />
        </mxCell>
        <mxCell id="_6GzWwc_408e7fxmxOcH-10" value="" style="edgeStyle=none;orthogonalLoop=1;jettySize=auto;html=1;rounded=0;exitX=1;exitY=0.5;exitDx=0;exitDy=0;entryX=0;entryY=0.5;entryDx=0;entryDy=0;" parent="1" source="_6GzWwc_408e7fxmxOcH-2" target="_6GzWwc_408e7fxmxOcH-9" edge="1">
          <mxGeometry width="100" relative="1" as="geometry">
            <mxPoint x="170" y="150" as="sourcePoint" />
            <mxPoint x="270" y="150" as="targetPoint" />
            <Array as="points" />
          </mxGeometry>
        </mxCell>
        <mxCell id="_6GzWwc_408e7fxmxOcH-12" value="0" style="text;html=1;align=center;verticalAlign=middle;resizable=0;points=[];autosize=1;strokeColor=none;fillColor=none;" parent="1" vertex="1">
          <mxGeometry x="115" y="158" width="30" height="30" as="geometry" />
        </mxCell>
        <mxCell id="_6GzWwc_408e7fxmxOcH-13" value="1" style="text;html=1;align=center;verticalAlign=middle;resizable=0;points=[];autosize=1;strokeColor=none;fillColor=none;" parent="1" vertex="1">
          <mxGeometry x="210" y="97.5" width="30" height="30" as="geometry" />
        </mxCell>
        <mxCell id="_6GzWwc_408e7fxmxOcH-14" value="Send data Server" style="ellipse;whiteSpace=wrap;html=1;" parent="1" vertex="1">
          <mxGeometry x="330" y="320" width="120" height="55" as="geometry" />
        </mxCell>
        <mxCell id="_6GzWwc_408e7fxmxOcH-15" value="Check Send_data" style="rhombus;whiteSpace=wrap;html=1;" parent="1" vertex="1">
          <mxGeometry x="300" y="402.5" width="180" height="50" as="geometry" />
        </mxCell>
        <mxCell id="_6GzWwc_408e7fxmxOcH-16" value="" style="edgeStyle=none;orthogonalLoop=1;jettySize=auto;html=1;rounded=0;exitX=0.5;exitY=1;exitDx=0;exitDy=0;entryX=0.5;entryY=0;entryDx=0;entryDy=0;" parent="1" source="_6GzWwc_408e7fxmxOcH-14" target="_6GzWwc_408e7fxmxOcH-15" edge="1">
          <mxGeometry width="100" relative="1" as="geometry">
            <mxPoint x="380" y="385" as="sourcePoint" />
            <mxPoint x="480" y="385" as="targetPoint" />
            <Array as="points" />
          </mxGeometry>
        </mxCell>
        <mxCell id="_6GzWwc_408e7fxmxOcH-17" value="Nếu có tin hiệu thì đống gói bản tin" style="rounded=1;whiteSpace=wrap;html=1;" parent="1" vertex="1">
          <mxGeometry x="140" y="397.5" width="120" height="60" as="geometry" />
        </mxCell>
        <mxCell id="_6GzWwc_408e7fxmxOcH-19" value="" style="edgeStyle=none;orthogonalLoop=1;jettySize=auto;html=1;rounded=0;exitX=0;exitY=0.5;exitDx=0;exitDy=0;entryX=1;entryY=0.5;entryDx=0;entryDy=0;" parent="1" source="_6GzWwc_408e7fxmxOcH-15" target="_6GzWwc_408e7fxmxOcH-17" edge="1">
          <mxGeometry width="100" relative="1" as="geometry">
            <mxPoint x="270" y="480" as="sourcePoint" />
            <mxPoint x="370" y="480" as="targetPoint" />
            <Array as="points" />
          </mxGeometry>
        </mxCell>
        <mxCell id="_6GzWwc_408e7fxmxOcH-20" value="" style="edgeStyle=none;orthogonalLoop=1;jettySize=auto;html=1;rounded=0;exitX=0.5;exitY=1;exitDx=0;exitDy=0;" parent="1" source="_6GzWwc_408e7fxmxOcH-15" edge="1">
          <mxGeometry width="100" relative="1" as="geometry">
            <mxPoint x="350" y="520" as="sourcePoint" />
            <mxPoint x="390" y="490" as="targetPoint" />
            <Array as="points" />
          </mxGeometry>
        </mxCell>
        <mxCell id="_6GzWwc_408e7fxmxOcH-21" value="Tồn tại bản tin chưa gửi" style="rhombus;whiteSpace=wrap;html=1;" parent="1" vertex="1">
          <mxGeometry x="300" y="490" width="180" height="50" as="geometry" />
        </mxCell>
        <mxCell id="_6GzWwc_408e7fxmxOcH-23" value="Trạng thái gửi bản tin" style="rhombus;whiteSpace=wrap;html=1;" parent="1" vertex="1">
          <mxGeometry x="300" y="580" width="180" height="50" as="geometry" />
        </mxCell>
        <mxCell id="_6GzWwc_408e7fxmxOcH-24" value="Gửi &quot;AT+CIPSEND&quot;&lt;br&gt;gửi 1 lần" style="rounded=1;whiteSpace=wrap;html=1;" parent="1" vertex="1">
          <mxGeometry x="480" y="670" width="120" height="40" as="geometry" />
        </mxCell>
        <mxCell id="_6GzWwc_408e7fxmxOcH-26" value="Phản hồi&amp;nbsp;&amp;nbsp;" style="rhombus;whiteSpace=wrap;html=1;" parent="1" vertex="1">
          <mxGeometry x="450" y="740" width="180" height="50" as="geometry" />
        </mxCell>
        <mxCell id="_6GzWwc_408e7fxmxOcH-27" value="Gửi bản tin&lt;br&gt;gửi 1 lần" style="rounded=1;whiteSpace=wrap;html=1;" parent="1" vertex="1">
          <mxGeometry x="480" y="840" width="120" height="40" as="geometry" />
        </mxCell>
        <mxCell id="_6GzWwc_408e7fxmxOcH-28" value="Xác nhận thành công" style="rounded=1;whiteSpace=wrap;html=1;" parent="1" vertex="1">
          <mxGeometry x="480" y="1000" width="120" height="60" as="geometry" />
        </mxCell>
        <mxCell id="_6GzWwc_408e7fxmxOcH-29" value="Phản hồi&amp;nbsp;&amp;nbsp;" style="rhombus;whiteSpace=wrap;html=1;" parent="1" vertex="1">
          <mxGeometry x="450" y="910" width="180" height="50" as="geometry" />
        </mxCell>
        <mxCell id="_6GzWwc_408e7fxmxOcH-30" value="Kêt thúc" style="ellipse;whiteSpace=wrap;html=1;" parent="1" vertex="1">
          <mxGeometry x="140" y="1060" width="120" height="80" as="geometry" />
        </mxCell>
        <mxCell id="_6GzWwc_408e7fxmxOcH-31" value="" style="edgeStyle=none;orthogonalLoop=1;jettySize=auto;html=1;rounded=0;entryX=0.5;entryY=0;entryDx=0;entryDy=0;exitX=0.5;exitY=1;exitDx=0;exitDy=0;" parent="1" source="_6GzWwc_408e7fxmxOcH-17" target="_6GzWwc_408e7fxmxOcH-30" edge="1">
          <mxGeometry width="100" relative="1" as="geometry">
            <mxPoint x="150" y="730" as="sourcePoint" />
            <mxPoint x="250" y="730" as="targetPoint" />
            <Array as="points" />
          </mxGeometry>
        </mxCell>
        <mxCell id="_6GzWwc_408e7fxmxOcH-32" value="" style="edgeStyle=none;orthogonalLoop=1;jettySize=auto;html=1;rounded=0;exitX=0;exitY=0.5;exitDx=0;exitDy=0;" parent="1" source="_6GzWwc_408e7fxmxOcH-21" edge="1">
          <mxGeometry width="100" relative="1" as="geometry">
            <mxPoint x="190" y="510" as="sourcePoint" />
            <mxPoint x="200" y="515" as="targetPoint" />
            <Array as="points" />
          </mxGeometry>
        </mxCell>
        <mxCell id="_6GzWwc_408e7fxmxOcH-33" value="" style="edgeStyle=none;orthogonalLoop=1;jettySize=auto;html=1;rounded=0;exitX=0.5;exitY=1;exitDx=0;exitDy=0;entryX=0.5;entryY=0;entryDx=0;entryDy=0;" parent="1" source="_6GzWwc_408e7fxmxOcH-21" target="_6GzWwc_408e7fxmxOcH-23" edge="1">
          <mxGeometry width="100" relative="1" as="geometry">
            <mxPoint x="370" y="570" as="sourcePoint" />
            <mxPoint x="470" y="570" as="targetPoint" />
            <Array as="points" />
          </mxGeometry>
        </mxCell>
        <mxCell id="_6GzWwc_408e7fxmxOcH-34" value="" style="edgeStyle=segmentEdgeStyle;endArrow=classic;html=1;curved=0;rounded=0;endSize=8;startSize=8;sourcePerimeterSpacing=0;targetPerimeterSpacing=0;exitX=0.5;exitY=1;exitDx=0;exitDy=0;entryX=-0.015;entryY=0.625;entryDx=0;entryDy=0;entryPerimeter=0;" parent="1" source="_6GzWwc_408e7fxmxOcH-23" target="_6GzWwc_408e7fxmxOcH-28" edge="1">
          <mxGeometry width="100" relative="1" as="geometry">
            <mxPoint x="370" y="700" as="sourcePoint" />
            <mxPoint x="470" y="740" as="targetPoint" />
            <Array as="points">
              <mxPoint x="390" y="1037" />
            </Array>
          </mxGeometry>
        </mxCell>
        <mxCell id="_6GzWwc_408e7fxmxOcH-35" value="" style="edgeStyle=none;orthogonalLoop=1;jettySize=auto;html=1;rounded=0;" parent="1" edge="1">
          <mxGeometry width="100" relative="1" as="geometry">
            <mxPoint x="390" y="690" as="sourcePoint" />
            <mxPoint x="480" y="689.68" as="targetPoint" />
            <Array as="points" />
          </mxGeometry>
        </mxCell>
        <mxCell id="_6GzWwc_408e7fxmxOcH-36" value="" style="edgeStyle=none;orthogonalLoop=1;jettySize=auto;html=1;rounded=0;" parent="1" edge="1">
          <mxGeometry width="100" relative="1" as="geometry">
            <mxPoint x="390" y="860" as="sourcePoint" />
            <mxPoint x="480" y="860" as="targetPoint" />
            <Array as="points" />
          </mxGeometry>
        </mxCell>
        <mxCell id="_6GzWwc_408e7fxmxOcH-37" value="" style="edgeStyle=none;orthogonalLoop=1;jettySize=auto;html=1;rounded=0;exitX=0.5;exitY=1;exitDx=0;exitDy=0;entryX=0.5;entryY=0;entryDx=0;entryDy=0;" parent="1" source="_6GzWwc_408e7fxmxOcH-24" target="_6GzWwc_408e7fxmxOcH-26" edge="1">
          <mxGeometry width="100" relative="1" as="geometry">
            <mxPoint x="510" y="730" as="sourcePoint" />
            <mxPoint x="610" y="730" as="targetPoint" />
            <Array as="points" />
          </mxGeometry>
        </mxCell>
        <mxCell id="_6GzWwc_408e7fxmxOcH-38" value="" style="edgeStyle=none;orthogonalLoop=1;jettySize=auto;html=1;rounded=0;exitX=0.5;exitY=1;exitDx=0;exitDy=0;entryX=0.5;entryY=0;entryDx=0;entryDy=0;" parent="1" source="_6GzWwc_408e7fxmxOcH-26" target="_6GzWwc_408e7fxmxOcH-27" edge="1">
          <mxGeometry width="100" relative="1" as="geometry">
            <mxPoint x="490" y="810" as="sourcePoint" />
            <mxPoint x="590" y="810" as="targetPoint" />
            <Array as="points" />
          </mxGeometry>
        </mxCell>
        <mxCell id="_6GzWwc_408e7fxmxOcH-39" value="" style="edgeStyle=none;orthogonalLoop=1;jettySize=auto;html=1;rounded=0;exitX=0.5;exitY=1;exitDx=0;exitDy=0;entryX=0.5;entryY=0;entryDx=0;entryDy=0;" parent="1" source="_6GzWwc_408e7fxmxOcH-27" target="_6GzWwc_408e7fxmxOcH-29" edge="1">
          <mxGeometry width="100" relative="1" as="geometry">
            <mxPoint x="530" y="910" as="sourcePoint" />
            <mxPoint x="630" y="910" as="targetPoint" />
            <Array as="points" />
          </mxGeometry>
        </mxCell>
        <mxCell id="_6GzWwc_408e7fxmxOcH-40" value="" style="edgeStyle=none;orthogonalLoop=1;jettySize=auto;html=1;rounded=0;exitX=0.5;exitY=1;exitDx=0;exitDy=0;" parent="1" source="_6GzWwc_408e7fxmxOcH-29" target="_6GzWwc_408e7fxmxOcH-28" edge="1">
          <mxGeometry width="100" relative="1" as="geometry">
            <mxPoint x="520" y="980" as="sourcePoint" />
            <mxPoint x="620" y="980" as="targetPoint" />
            <Array as="points" />
          </mxGeometry>
        </mxCell>
        <mxCell id="_6GzWwc_408e7fxmxOcH-41" value="Đúng" style="text;html=1;align=center;verticalAlign=middle;resizable=0;points=[];autosize=1;strokeColor=none;fillColor=none;" parent="1" vertex="1">
          <mxGeometry x="535" y="798" width="50" height="30" as="geometry" />
        </mxCell>
        <mxCell id="_6GzWwc_408e7fxmxOcH-42" value="Đúng" style="text;html=1;align=center;verticalAlign=middle;resizable=0;points=[];autosize=1;strokeColor=none;fillColor=none;" parent="1" vertex="1">
          <mxGeometry x="535" y="968" width="50" height="30" as="geometry" />
        </mxCell>
        <mxCell id="_6GzWwc_408e7fxmxOcH-43" value="Check Config = 0" style="rounded=1;whiteSpace=wrap;html=1;" parent="1" vertex="1">
          <mxGeometry x="630" y="1070" width="120" height="60" as="geometry" />
        </mxCell>
        <mxCell id="_6GzWwc_408e7fxmxOcH-44" value="" style="edgeStyle=segmentEdgeStyle;endArrow=classic;html=1;curved=0;rounded=0;endSize=8;startSize=8;sourcePerimeterSpacing=0;targetPerimeterSpacing=0;entryX=0.5;entryY=0;entryDx=0;entryDy=0;exitX=1;exitY=0.5;exitDx=0;exitDy=0;" parent="1" source="_6GzWwc_408e7fxmxOcH-26" target="_6GzWwc_408e7fxmxOcH-43" edge="1">
          <mxGeometry width="100" relative="1" as="geometry">
            <mxPoint x="690" y="760" as="sourcePoint" />
            <mxPoint x="710" y="810" as="targetPoint" />
            <Array as="points">
              <mxPoint x="690" y="765" />
            </Array>
          </mxGeometry>
        </mxCell>
        <mxCell id="_6GzWwc_408e7fxmxOcH-45" value="" style="edgeStyle=none;orthogonalLoop=1;jettySize=auto;html=1;rounded=0;exitX=1;exitY=0.5;exitDx=0;exitDy=0;" parent="1" source="_6GzWwc_408e7fxmxOcH-29" edge="1">
          <mxGeometry width="100" relative="1" as="geometry">
            <mxPoint x="610" y="980" as="sourcePoint" />
            <mxPoint x="690" y="935" as="targetPoint" />
            <Array as="points" />
          </mxGeometry>
        </mxCell>
        <mxCell id="_6GzWwc_408e7fxmxOcH-46" value="Sau 2 giây, sai" style="text;html=1;align=center;verticalAlign=middle;resizable=0;points=[];autosize=1;strokeColor=none;fillColor=none;" parent="1" vertex="1">
          <mxGeometry x="600" y="730" width="100" height="30" as="geometry" />
        </mxCell>
        <mxCell id="_6GzWwc_408e7fxmxOcH-47" value="Sau 2 giây, sai" style="text;html=1;align=center;verticalAlign=middle;resizable=0;points=[];autosize=1;strokeColor=none;fillColor=none;" parent="1" vertex="1">
          <mxGeometry x="600" y="898" width="100" height="30" as="geometry" />
        </mxCell>
        <mxCell id="_6GzWwc_408e7fxmxOcH-48" value="" style="edgeStyle=none;orthogonalLoop=1;jettySize=auto;html=1;rounded=0;exitX=0;exitY=0.5;exitDx=0;exitDy=0;" parent="1" source="_6GzWwc_408e7fxmxOcH-43" target="_6GzWwc_408e7fxmxOcH-30" edge="1">
          <mxGeometry width="100" relative="1" as="geometry">
            <mxPoint x="260" y="1100" as="sourcePoint" />
            <mxPoint x="360" y="1100" as="targetPoint" />
            <Array as="points" />
          </mxGeometry>
        </mxCell>
        <mxCell id="_6GzWwc_408e7fxmxOcH-49" value="0" style="text;html=1;align=center;verticalAlign=middle;resizable=0;points=[];autosize=1;strokeColor=none;fillColor=none;" parent="1" vertex="1">
          <mxGeometry x="425" y="658" width="30" height="30" as="geometry" />
        </mxCell>
        <mxCell id="_6GzWwc_408e7fxmxOcH-50" value="1" style="text;html=1;align=center;verticalAlign=middle;resizable=0;points=[];autosize=1;strokeColor=none;fillColor=none;" parent="1" vertex="1">
          <mxGeometry x="425" y="828" width="30" height="30" as="geometry" />
        </mxCell>
        <mxCell id="_6GzWwc_408e7fxmxOcH-51" value="2" style="text;html=1;align=center;verticalAlign=middle;resizable=0;points=[];autosize=1;strokeColor=none;fillColor=none;" parent="1" vertex="1">
          <mxGeometry x="425" y="998" width="30" height="30" as="geometry" />
        </mxCell>
        <mxCell id="_6GzWwc_408e7fxmxOcH-52" value="" style="edgeStyle=none;orthogonalLoop=1;jettySize=auto;html=1;rounded=0;exitX=0.5;exitY=1;exitDx=0;exitDy=0;" parent="1" source="_6GzWwc_408e7fxmxOcH-28" edge="1">
          <mxGeometry width="100" relative="1" as="geometry">
            <mxPoint x="480" y="1080" as="sourcePoint" />
            <mxPoint x="540" y="1100" as="targetPoint" />
            <Array as="points" />
          </mxGeometry>
        </mxCell>
        <mxCell id="_6GzWwc_408e7fxmxOcH-53" value="" style="edgeStyle=none;orthogonalLoop=1;jettySize=auto;html=1;rounded=0;exitX=0;exitY=0.5;exitDx=0;exitDy=0;" parent="1" source="_6GzWwc_408e7fxmxOcH-26" edge="1">
          <mxGeometry width="100" relative="1" as="geometry">
            <mxPoint x="280" y="800" as="sourcePoint" />
            <mxPoint x="200" y="765" as="targetPoint" />
            <Array as="points" />
          </mxGeometry>
        </mxCell>
        <mxCell id="_6GzWwc_408e7fxmxOcH-54" value="" style="edgeStyle=none;orthogonalLoop=1;jettySize=auto;html=1;rounded=0;exitX=0;exitY=0.5;exitDx=0;exitDy=0;" parent="1" source="_6GzWwc_408e7fxmxOcH-29" edge="1">
          <mxGeometry width="100" relative="1" as="geometry">
            <mxPoint x="280" y="990" as="sourcePoint" />
            <mxPoint x="200" y="935" as="targetPoint" />
            <Array as="points" />
          </mxGeometry>
        </mxCell>
        <mxCell id="_6GzWwc_408e7fxmxOcH-55" value="chưa" style="text;html=1;align=center;verticalAlign=middle;resizable=0;points=[];autosize=1;strokeColor=none;fillColor=none;" parent="1" vertex="1">
          <mxGeometry x="400" y="730" width="50" height="30" as="geometry" />
        </mxCell>
        <mxCell id="_6GzWwc_408e7fxmxOcH-56" value="chưa" style="text;html=1;align=center;verticalAlign=middle;resizable=0;points=[];autosize=1;strokeColor=none;fillColor=none;" parent="1" vertex="1">
          <mxGeometry x="405" y="908" width="50" height="30" as="geometry" />
        </mxCell>
        <mxCell id="_6GzWwc_408e7fxmxOcH-57" value="0" style="text;html=1;align=center;verticalAlign=middle;resizable=0;points=[];autosize=1;strokeColor=none;fillColor=none;" parent="1" vertex="1">
          <mxGeometry x="270" y="397.5" width="30" height="30" as="geometry" />
        </mxCell>
        <mxCell id="_6GzWwc_408e7fxmxOcH-58" value="1" style="text;html=1;align=center;verticalAlign=middle;resizable=0;points=[];autosize=1;strokeColor=none;fillColor=none;" parent="1" vertex="1">
          <mxGeometry x="385" y="458" width="30" height="30" as="geometry" />
        </mxCell>
        <mxCell id="_6GzWwc_408e7fxmxOcH-59" value="0" style="text;html=1;align=center;verticalAlign=middle;resizable=0;points=[];autosize=1;strokeColor=none;fillColor=none;" parent="1" vertex="1">
          <mxGeometry x="270" y="480" width="30" height="30" as="geometry" />
        </mxCell>
        <mxCell id="_6GzWwc_408e7fxmxOcH-60" value="1" style="text;html=1;align=center;verticalAlign=middle;resizable=0;points=[];autosize=1;strokeColor=none;fillColor=none;" parent="1" vertex="1">
          <mxGeometry x="385" y="548" width="30" height="30" as="geometry" />
        </mxCell>
        <mxCell id="t7ZzBam0Q9vfFdZdT5Y4-1" value="" style="shape=image;verticalLabelPosition=bottom;labelBackgroundColor=default;verticalAlign=top;aspect=fixed;imageAspect=0;image=data:image/png,iVBORw0KGgoAAAANSUhEUgAAAAkAAAAJAQMAAADaX5RTAAAABlBMVEV7mr3///+wksspAAAAAnRSTlP/AOW3MEoAAAAdSURBVAgdY9jXwCDDwNDRwHCwgeExmASygSL7GgB12QiqNHZZIwAAAABJRU5ErkJggg==;" vertex="1" parent="1">
          <mxGeometry x="540" y="920" width="9" height="9" as="geometry" />
        </mxCell>
        <mxCell id="t7ZzBam0Q9vfFdZdT5Y4-2" value="Trạng thái hoàn thành" style="rhombus;whiteSpace=wrap;html=1;" vertex="1" parent="1">
          <mxGeometry x="400" y="92.5" width="190" height="65" as="geometry" />
        </mxCell>
        <mxCell id="t7ZzBam0Q9vfFdZdT5Y4-3" value="" style="edgeStyle=none;orthogonalLoop=1;jettySize=auto;html=1;rounded=0;exitX=1;exitY=0.5;exitDx=0;exitDy=0;entryX=0;entryY=0.5;entryDx=0;entryDy=0;" edge="1" parent="1" source="_6GzWwc_408e7fxmxOcH-9" target="t7ZzBam0Q9vfFdZdT5Y4-2">
          <mxGeometry width="100" relative="1" as="geometry">
            <mxPoint x="350" y="170" as="sourcePoint" />
            <mxPoint x="450" y="170" as="targetPoint" />
            <Array as="points" />
          </mxGeometry>
        </mxCell>
        <mxCell id="t7ZzBam0Q9vfFdZdT5Y4-6" value="" style="edgeStyle=segmentEdgeStyle;endArrow=classic;html=1;curved=0;rounded=0;endSize=8;startSize=8;sourcePerimeterSpacing=0;targetPerimeterSpacing=0;exitX=0.5;exitY=0;exitDx=0;exitDy=0;entryX=1.022;entryY=0.669;entryDx=0;entryDy=0;entryPerimeter=0;" edge="1" parent="1" source="t7ZzBam0Q9vfFdZdT5Y4-2" target="_6GzWwc_408e7fxmxOcH-4">
          <mxGeometry width="100" relative="1" as="geometry">
            <mxPoint x="500" y="90" as="sourcePoint" />
            <mxPoint x="650" y="240" as="targetPoint" />
            <Array as="points">
              <mxPoint x="495" y="70" />
              <mxPoint x="700" y="70" />
              <mxPoint x="700" y="234" />
            </Array>
          </mxGeometry>
        </mxCell>
        <mxCell id="t7ZzBam0Q9vfFdZdT5Y4-8" value="" style="edgeStyle=none;orthogonalLoop=1;jettySize=auto;html=1;rounded=0;exitX=0.5;exitY=1;exitDx=0;exitDy=0;" edge="1" parent="1" source="t7ZzBam0Q9vfFdZdT5Y4-2">
          <mxGeometry width="100" relative="1" as="geometry">
            <mxPoint x="500" y="200" as="sourcePoint" />
            <mxPoint x="495" y="230" as="targetPoint" />
            <Array as="points" />
          </mxGeometry>
        </mxCell>
        <mxCell id="t7ZzBam0Q9vfFdZdT5Y4-9" value="Chưa" style="text;html=1;align=center;verticalAlign=middle;resizable=0;points=[];autosize=1;strokeColor=none;fillColor=none;" vertex="1" parent="1">
          <mxGeometry x="440" y="158" width="50" height="30" as="geometry" />
        </mxCell>
        <mxCell id="t7ZzBam0Q9vfFdZdT5Y4-10" value="3 lần không thành công, config lại SIM" style="text;html=1;align=center;verticalAlign=middle;resizable=0;points=[];autosize=1;strokeColor=none;fillColor=none;" vertex="1" parent="1">
          <mxGeometry x="490" y="30" width="230" height="30" as="geometry" />
        </mxCell>
        <mxCell id="t7ZzBam0Q9vfFdZdT5Y4-11" value="" style="edgeStyle=none;orthogonalLoop=1;jettySize=auto;html=1;rounded=0;exitX=1;exitY=0.5;exitDx=0;exitDy=0;" edge="1" parent="1" source="t7ZzBam0Q9vfFdZdT5Y4-2">
          <mxGeometry width="100" relative="1" as="geometry">
            <mxPoint x="570" y="170" as="sourcePoint" />
            <mxPoint x="700" y="125" as="targetPoint" />
            <Array as="points" />
          </mxGeometry>
        </mxCell>
        <mxCell id="t7ZzBam0Q9vfFdZdT5Y4-12" value="Xong, check connect =0" style="text;html=1;align=center;verticalAlign=middle;resizable=0;points=[];autosize=1;strokeColor=none;fillColor=none;" vertex="1" parent="1">
          <mxGeometry x="560" y="97.5" width="150" height="30" as="geometry" />
        </mxCell>
      </root>
    </mxGraphModel>
  </diagram>
</mxfile>
